<svg id="Layer_1" data-name="Layer 1" xmlns="http://www.w3.org/2000/svg" viewBox="0 0 295.86 295.86"><defs><style>.cls-1{fill:none;stroke:#010101;stroke-width:10px;}.cls-2{fill:#ed1459;}.cls-3{font-size:18px;fill:#231f20;font-family:Bauhaus93, "Bauhaus 93";}</style></defs><circle class="cls-1" cx="147.93" cy="147.93" r="142.93"/><path class="cls-2" d="M211.59,281.37q-19.2,0-34.25-6.48a72.18,72.18,0,0,1-25.47-18A78.27,78.27,0,0,1,136,229.36a108,108,0,0,1-5.45-35.06,118.44,118.44,0,0,1,5.53-37.23,79.13,79.13,0,0,1,16.36-28.74,73,73,0,0,1,26.69-18.53q15.87-6.57,36.37-6.57,20,0,34.83,6.57A67.29,67.29,0,0,1,275,128.08a77.32,77.32,0,0,1,14.73,28,123.22,123.22,0,0,1,4.88,35.56,112.5,112.5,0,0,1-5.53,36.06A81.55,81.55,0,0,1,273,256.11a72.38,72.38,0,0,1-26,18.62Q231.45,281.38,211.59,281.37Zm2-155.2q-14.66,0-25.15,5.48a49.46,49.46,0,0,0-17.25,14.71,63.4,63.4,0,0,0-10,21.35,98,98,0,0,0-3.26,25.59,90.39,90.39,0,0,0,3.42,25.26,61.7,61.7,0,0,0,10.25,20.69,48.4,48.4,0,0,0,17.33,14q10.5,5.15,24.66,5.15,14.64,0,24.9-5.23A45.09,45.09,0,0,0,255.05,239a60.88,60.88,0,0,0,9.27-20.94,106.26,106.26,0,0,0,2.93-25.42A111.64,111.64,0,0,0,264.4,167a60.74,60.74,0,0,0-9.19-21.18,45.44,45.44,0,0,0-16.6-14.38Q228.37,126.17,213.55,126.17Z" transform="translate(-62.29 -46.87)"/><text class="cls-3" transform="translate(104.58 262.27) scale(0.98 1)">Opinion <tspan class="cls-2" x="68.43" y="0">Trip</tspan></text></svg>